<svg width="96" height="96" viewBox="0 0 96 96" fill="none" xmlns="http://www.w3.org/2000/svg">
  <defs>
    <radialGradient id="am_orb" cx="0" cy="0" r="1" gradientUnits="userSpaceOnUse" gradientTransform="translate(48 48) scale(48)">
      <stop offset="0" stop-color="#fff5f7"/>
      <stop offset="0.55" stop-color="#ffd4de"/>
      <stop offset="1" stop-color="#ff99ad"/>
    </radialGradient>
    <linearGradient id="am_ring" x1="0" y1="0" x2="96" y2="96" gradientUnits="userSpaceOnUse">
      <stop offset="0" stop-color="#ff5f6d"/>
      <stop offset="0.45" stop-color="#ff7a88"/>
      <stop offset="1" stop-color="#a855f7"/>
    </linearGradient>
    <linearGradient id="am_letter" x1="0" y1="0" x2="1" y2="1">
      <stop offset="0" stop-color="#ff5f6d"/>
      <stop offset="1" stop-color="#8b5cf6"/>
    </linearGradient>
  </defs>

  <circle cx="48" cy="48" r="42" fill="url(#am_orb)"/>
  <circle cx="48" cy="48" r="46" stroke="url(#am_ring)" stroke-width="4" opacity="0.7"/>
  <path d="M28 66L38 30C39.4 24.8 42.4 22 46.8 22C50.8 22 53.6 24.4 54.8 29L60.2 49L66 30C67.9 24.6 71 22 75.4 22C79.8 22 82.7 24.7 83.8 30L90 66H79.8L75.4 38.8L68.8 60.5H59.8L54 38.4L47.5 66H28Z" fill="url(#am_letter)"/>
  <circle cx="66" cy="26" r="6" fill="#fff" opacity="0.35"/>
</svg>
